<svg width="41" height="60" viewBox="0 0 41 60" fill="none" xmlns="http://www.w3.org/2000/svg">
<path d="M20.0156 0L37.3299 30.032C45.0115 43.3558 35.3952 60 20.0156 60C4.63596 60 -4.98039 43.3558 2.70122 30.032L20.0156 0Z" fill="#52ACFF" fill-opacity="0.3"/>
<path d="M20 49L19.2859 49.7001L20 50.4284L20.7141 49.7001L20 49ZM21 32C21 31.4477 20.5523 31 20 31C19.4477 31 19 31.4477 19 32L21 32ZM9.28593 39.5001L19.2859 49.7001L20.7141 48.2999L10.7141 38.0999L9.28593 39.5001ZM20.7141 49.7001L30.7141 39.5001L29.2859 38.0999L19.2859 48.2999L20.7141 49.7001ZM21 49L21 32L19 32L19 49L21 49Z" fill="white"/>
</svg>
