<svg width="30" height="31" viewBox="0 0 30 31" fill="none" xmlns="http://www.w3.org/2000/svg">
<path d="M14.6995 8.24023C12.7278 8.24023 12.4805 8.2486 11.7062 8.28392C10.9334 8.31917 10.4057 8.44191 9.94386 8.62135C9.46645 8.80689 9.06158 9.05515 8.65798 9.45874C8.25436 9.86234 8.00611 10.2673 7.82059 10.7447C7.64111 11.2064 7.51841 11.7342 7.48311 12.5069C7.4478 13.2813 7.43945 13.5285 7.43945 15.5003C7.43945 17.4719 7.4478 17.7192 7.48311 18.4935C7.51841 19.2663 7.64111 19.794 7.82059 20.2558C8.00613 20.7332 8.25439 21.1381 8.65798 21.5417C9.0616 21.9453 9.46645 22.1936 9.94386 22.3791C10.4057 22.5586 10.9334 22.6813 11.7062 22.7166C12.4805 22.7519 12.7278 22.7602 14.6995 22.7602C16.6711 22.7602 16.9184 22.7519 17.6927 22.7166C18.4655 22.6813 18.9932 22.5586 19.455 22.3791C19.9324 22.1936 20.3373 21.9453 20.7409 21.5417C21.1445 21.1381 21.3928 20.7332 21.5783 20.2558C21.7578 19.794 21.8805 19.2663 21.9158 18.4935C21.9511 17.7192 21.9595 17.4719 21.9595 15.5003C21.9595 13.5285 21.9511 13.2813 21.9158 12.5069C21.8805 11.7342 21.7578 11.2064 21.5783 10.7447C21.3928 10.2673 21.1445 9.86234 20.7409 9.45874C20.3373 9.05515 19.9324 8.80689 19.455 8.62135C18.9932 8.44191 18.4655 8.31917 17.6927 8.28392C16.9184 8.2486 16.6711 8.24023 14.6995 8.24023ZM14.6995 9.54833C16.6379 9.54833 16.8676 9.55575 17.6331 9.59067C18.341 9.62294 18.7254 9.74122 18.9812 9.84064C19.3201 9.97236 19.5619 10.1297 19.816 10.3837C20.07 10.6378 20.2273 10.8796 20.359 11.2185C20.4585 11.4743 20.5767 11.8587 20.609 12.5666C20.6439 13.3321 20.6514 13.5617 20.6514 15.5002C20.6514 17.4387 20.6439 17.6684 20.609 18.4339C20.5767 19.1418 20.4585 19.5262 20.359 19.782C20.2273 20.1209 20.07 20.3627 19.816 20.6167C19.5619 20.8708 19.3201 21.0281 18.9812 21.1598C18.7254 21.2593 18.341 21.3775 17.6331 21.4098C16.8677 21.4447 16.6381 21.4521 14.6995 21.4521C12.7608 21.4521 12.5312 21.4447 11.7658 21.4098C11.0579 21.3775 10.6735 21.2593 10.4177 21.1598C10.0788 21.0281 9.83698 20.8708 9.58295 20.6167C9.3289 20.3627 9.17157 20.1208 9.03986 19.782C8.94043 19.5262 8.82218 19.1417 8.78989 18.4339C8.75497 17.6684 8.74755 17.4387 8.74755 15.5002C8.74755 13.5617 8.75497 13.3321 8.78989 12.5666C8.82218 11.8587 8.94043 11.4743 9.03986 11.2185C9.17157 10.8796 9.3289 10.6378 9.58293 10.3837C9.83698 10.1297 10.0788 9.97236 10.4177 9.84064C10.6735 9.74122 11.058 9.62294 11.7658 9.59067C12.5313 9.55575 12.761 9.54833 14.6995 9.54833" fill="white"/>
<path d="M14.6988 17.9205C13.3623 17.9205 12.2788 16.8371 12.2788 15.5005C12.2788 14.164 13.3623 13.0805 14.6988 13.0805C16.0354 13.0805 17.1188 14.164 17.1188 15.5005C17.1188 16.8371 16.0354 17.9205 14.6988 17.9205ZM14.6988 11.7724C12.6398 11.7724 10.9707 13.4415 10.9707 15.5005C10.9707 17.5595 12.6398 19.2286 14.6988 19.2286C16.7578 19.2286 18.4269 17.5595 18.4269 15.5005C18.4269 13.4415 16.7578 11.7724 14.6988 11.7724ZM19.4454 11.6251C19.4454 12.1063 19.0554 12.4963 18.5742 12.4963C18.0931 12.4963 17.703 12.1063 17.703 11.6251C17.703 11.144 18.0931 10.7539 18.5742 10.7539C19.0554 10.7539 19.4454 11.144 19.4454 11.6251Z" fill="white"/>
</svg>
