<svg width="93" height="25" viewBox="0 0 93 25" fill="none" xmlns="http://www.w3.org/2000/svg">
<path d="M55.2837 14.1588C55.0881 13.4767 54.8247 12.7983 54.5011 12.1426C53.0826 9.2445 48.3681 0 48.3681 0C48.3681 0 47.7999 1.11175 47.7171 1.27757C47.7585 1.36048 52.3527 10.3713 53.4664 12.6514C53.7599 13.2506 54.0007 13.8724 54.1813 14.4942L54.1926 14.5244C54.4409 15.2367 54.5575 15.9829 54.5425 16.7592C54.5425 21.4436 51.2352 23.4033 50.9868 23.6031C52.0065 23.2375 52.9434 22.6496 53.7335 21.8544C55.058 20.5278 55.7352 18.7603 55.6976 16.7592C55.7089 15.8773 55.5734 14.9992 55.2837 14.1588Z" fill="url(#paint0_linear_1607_2345)"/>
<path d="M52.5634 16.7667C52.5822 15.8773 52.4467 15.003 52.157 14.1625C51.9613 13.4842 51.698 12.8058 51.3744 12.1463C50.7197 10.8009 45.2414 0.00372467 45.2414 0.00372467C45.2414 0.00372467 40.5231 9.24446 39.1084 12.1463C38.7885 12.8021 38.5252 13.4804 38.3257 14.1625C38.036 15.003 37.8968 15.8773 37.9194 16.7441C37.8818 18.7678 38.5628 20.5391 39.8834 21.8619C40.6736 22.6533 41.6067 23.2412 42.6264 23.6068C43.4504 23.9007 44.3308 24.0515 45.2338 24.0402C45.2715 24.0402 45.3091 24.0402 45.3505 24.0402C45.8471 24.0402 46.3363 23.9912 46.8104 23.897C47.7585 23.7085 48.654 23.3392 49.4555 22.8041C49.8618 22.5327 50.2456 22.2162 50.6031 21.8619C51.2352 21.2288 51.7168 20.4939 52.0479 19.6799C52.4053 18.7904 52.5822 17.8106 52.5634 16.7667ZM46.7953 22.7061C46.2911 22.8267 45.7681 22.8907 45.2301 22.8794C44.8651 22.887 44.5077 22.8568 44.154 22.8003C42.8521 22.6006 41.6481 21.9938 40.6962 21.0403C40.5156 20.8594 40.3538 20.6597 40.1995 20.4562C39.4357 19.4387 39.0444 18.1724 39.0707 16.7328C39.0519 15.979 39.1723 15.2328 39.4206 14.5206L39.4319 14.4904C39.6125 13.8686 39.8496 13.2505 40.1468 12.6475C41.2606 10.3675 44.0787 4.82383 45.2451 2.54003C45.2602 2.56641 49.2147 10.3751 49.8016 11.5509H43.8191C44.4061 10.3751 45.1736 8.84498 45.9375 7.33375C45.7155 6.89659 45.501 6.47073 45.2903 6.05618C44.1389 8.32868 42.8935 10.7971 42.2388 12.1388C41.919 12.7945 41.6556 13.4729 41.4562 14.155C41.1665 14.9954 41.0273 15.8697 41.0499 16.7365C41.0499 20.426 43.1682 20.9725 43.9809 21.176C43.932 21.1308 43.8793 21.0893 43.8304 21.0403C42.7355 19.9437 42.1711 18.4626 42.205 16.7365C42.1862 15.9828 42.3066 15.2366 42.5549 14.5243L42.5662 14.4942C42.7393 13.895 42.9688 13.2958 43.251 12.7116H50.3735C50.6557 13.2958 50.8853 13.895 51.0583 14.4942L51.0696 14.5243C51.318 15.2366 51.4346 15.9828 51.4195 16.7591C51.4496 18.4626 50.889 19.9437 49.7941 21.0403C49.7452 21.0893 49.6888 21.1346 49.6398 21.1798C48.8234 21.941 47.8526 22.4573 46.7953 22.7061Z" fill="url(#paint1_linear_1607_2345)"/>
<path d="M1.12501 17.1059H0.342395C0.112878 17.1059 0 17.0305 0 16.8647C0 16.827 0.0112878 16.7893 0.0263381 16.7366L3.16057 8.38525C3.47663 8.24581 3.80398 8.17044 4.17271 8.17044C4.48877 8.17044 4.60164 8.26089 4.71452 8.55107L7.92401 17.1097H7.05109C6.81028 17.1097 6.65978 17.0192 6.59581 16.8572L5.86211 14.807H1.94526L1.12501 17.1059ZM5.52348 13.8272L3.90557 9.33118L2.28765 13.8272H5.52348Z" fill="url(#paint2_linear_1607_2345)"/>
<path d="M15.991 9.2935C16.7887 10.0925 17.18 11.2193 17.18 12.674C17.18 14.6111 16.4086 16.0055 15.1444 16.7253C15.626 17.5468 16.1566 17.9539 16.751 17.9539H16.9918C17.1687 18.3458 17.0408 18.8395 16.2205 18.8508C15.4379 18.8508 14.7907 18.2554 14.2978 17.0645C13.8915 17.1926 13.4776 17.2529 13.0336 17.2529C11.8597 17.2529 10.8739 16.8459 10.0762 16.0507C9.29359 15.2517 8.90228 14.1249 8.90228 12.6702C8.90228 11.2155 9.29359 10.0887 10.0762 9.28973C10.8739 8.49077 11.8597 8.08753 13.0336 8.08753C14.2188 8.0913 15.2046 8.49831 15.991 9.2935ZM10.9454 15.2819C11.5248 15.9263 12.2472 16.258 13.1201 16.258C13.9178 16.258 14.5988 15.9678 15.1557 15.3723C15.7239 14.7769 16.0023 13.9176 16.0023 12.7908C16.0023 11.6376 15.7126 10.7256 15.1294 10.0811C14.5462 9.42163 13.8275 9.09376 12.9546 9.09376C12.1569 9.09376 11.4759 9.38395 10.9077 9.97939C10.3509 10.5748 10.0724 11.4341 10.0724 12.5609C10.0724 13.7141 10.3659 14.6261 10.9454 15.2819Z" fill="url(#paint3_linear_1607_2345)"/>
<path d="M19.0613 8.2948C19.3284 8.20436 19.6068 8.16667 19.8702 8.16667C20.0997 8.16667 20.2126 8.25712 20.2126 8.43424V13.4729C20.2126 15.1575 21.0855 16.2693 22.4626 16.2693C23.8285 16.2693 24.7127 15.1537 24.7127 13.4729V8.24581H25.5103C25.7511 8.24581 25.864 8.34756 25.864 8.536V13.3863C25.864 14.5771 25.5593 15.5268 24.9535 16.224C24.3477 16.9212 23.5124 17.2604 22.4626 17.2604C21.4129 17.2604 20.5776 16.9175 19.9718 16.224C19.366 15.5268 19.0613 14.5771 19.0613 13.3863V8.2948Z" fill="url(#paint4_linear_1607_2345)"/>
<path d="M28.2119 17.1059H27.4293C27.2035 17.1059 27.0869 17.0305 27.0869 16.8647C27.0869 16.827 27.0981 16.7893 27.1132 16.7366L30.2474 8.38148C30.5635 8.24204 30.8908 8.16667 31.2596 8.16667C31.5756 8.16667 31.6885 8.25712 31.8014 8.5473L35.0109 17.1059H34.1379C33.8971 17.1059 33.7466 17.0155 33.6827 16.8534L32.949 14.8033H29.0321L28.2119 17.1059ZM32.6103 13.8272L30.9924 9.33118L29.3745 13.8272H32.6103Z" fill="url(#paint5_linear_1607_2345)"/>
<path d="M59.9869 17.1059C58.6851 17.1059 58.0642 16.4728 58.0642 14.9012V8.2948C58.3314 8.20435 58.6098 8.16667 58.8732 8.16667C59.1027 8.16667 59.2156 8.25712 59.2156 8.43424V14.8033C59.2156 15.7793 59.4827 16.1336 60.1261 16.1336H63.1738C63.362 16.1336 63.4523 16.2467 63.4523 16.4879V17.1059H59.9869Z" fill="url(#paint6_linear_1607_2345)"/>
<path d="M66.2178 17.1059H65.4201C65.1793 17.1059 65.0664 17.0155 65.0664 16.827V8.2948C65.3336 8.20435 65.5969 8.16667 65.8641 8.16667C66.1049 8.16667 66.2178 8.25712 66.2178 8.43424V17.1059Z" fill="url(#paint7_linear_1607_2345)"/>
<path d="M71.9181 17.1059H71.1204C70.8796 17.1059 70.7667 17.0155 70.7667 16.827V9.2332H68.291C68.1141 9.2332 68.0238 9.12014 68.0238 8.90532C68.0238 8.70182 68.0501 8.487 68.1141 8.24581H74.3826C74.5707 8.24581 74.6723 8.37394 74.6723 8.61137V9.2332H71.9181V17.1059Z" fill="url(#paint8_linear_1607_2345)"/>
<path d="M81.7535 17.1059H78.3145C77.0126 17.1059 76.3918 16.4728 76.3918 14.9012V8.24581H81.396C81.5616 8.24581 81.6481 8.35887 81.6481 8.57368C81.6481 8.81488 81.6218 9.02969 81.5729 9.2332H77.5394V12.2217H80.6887C80.8768 12.2217 80.9671 12.3348 80.9671 12.576V13.2091H77.5432V14.8033C77.5432 15.7793 77.8103 16.1336 78.4537 16.1336H81.4751C81.6632 16.1336 81.7535 16.2467 81.7535 16.4879V17.1059Z" fill="url(#paint9_linear_1607_2345)"/>
<defs>
<linearGradient id="paint0_linear_1607_2345" x1="81.7535" y1="12.0204" x2="-4.82257e-07" y2="12.0204" gradientUnits="userSpaceOnUse">
<stop stop-color="#39CEFF"/>
<stop offset="1" stop-color="#5BA7FF"/>
</linearGradient>
<linearGradient id="paint1_linear_1607_2345" x1="81.7535" y1="12.0204" x2="-4.82257e-07" y2="12.0204" gradientUnits="userSpaceOnUse">
<stop stop-color="#39CEFF"/>
<stop offset="1" stop-color="#5BA7FF"/>
</linearGradient>
<linearGradient id="paint2_linear_1607_2345" x1="81.7535" y1="12.0204" x2="-4.82257e-07" y2="12.0204" gradientUnits="userSpaceOnUse">
<stop stop-color="#39CEFF"/>
<stop offset="1" stop-color="#5BA7FF"/>
</linearGradient>
<linearGradient id="paint3_linear_1607_2345" x1="81.7535" y1="12.0204" x2="-4.82257e-07" y2="12.0204" gradientUnits="userSpaceOnUse">
<stop stop-color="#39CEFF"/>
<stop offset="1" stop-color="#5BA7FF"/>
</linearGradient>
<linearGradient id="paint4_linear_1607_2345" x1="81.7535" y1="12.0204" x2="-4.82257e-07" y2="12.0204" gradientUnits="userSpaceOnUse">
<stop stop-color="#39CEFF"/>
<stop offset="1" stop-color="#5BA7FF"/>
</linearGradient>
<linearGradient id="paint5_linear_1607_2345" x1="81.7535" y1="12.0204" x2="-4.82257e-07" y2="12.0204" gradientUnits="userSpaceOnUse">
<stop stop-color="#39CEFF"/>
<stop offset="1" stop-color="#5BA7FF"/>
</linearGradient>
<linearGradient id="paint6_linear_1607_2345" x1="81.7535" y1="12.0204" x2="-4.82257e-07" y2="12.0204" gradientUnits="userSpaceOnUse">
<stop stop-color="#39CEFF"/>
<stop offset="1" stop-color="#5BA7FF"/>
</linearGradient>
<linearGradient id="paint7_linear_1607_2345" x1="81.7535" y1="12.0204" x2="-4.82257e-07" y2="12.0204" gradientUnits="userSpaceOnUse">
<stop stop-color="#39CEFF"/>
<stop offset="1" stop-color="#5BA7FF"/>
</linearGradient>
<linearGradient id="paint8_linear_1607_2345" x1="81.7535" y1="12.0204" x2="-4.82257e-07" y2="12.0204" gradientUnits="userSpaceOnUse">
<stop stop-color="#39CEFF"/>
<stop offset="1" stop-color="#5BA7FF"/>
</linearGradient>
<linearGradient id="paint9_linear_1607_2345" x1="81.7535" y1="12.0204" x2="-4.82257e-07" y2="12.0204" gradientUnits="userSpaceOnUse">
<stop stop-color="#39CEFF"/>
<stop offset="1" stop-color="#5BA7FF"/>
</linearGradient>
</defs>
</svg>
