<svg width="18" height="18" viewBox="0 0 18 18" fill="none" xmlns="http://www.w3.org/2000/svg">
<path fill-rule="evenodd" clip-rule="evenodd" d="M2.13632 6.48954C2.12695 6.87169 2.12695 7.30553 2.12695 7.80044V9.21863C2.12695 11.2242 2.12695 12.227 2.75002 12.8501C3.37308 13.4732 4.37589 13.4732 6.3815 13.4732H10.636C12.6417 13.4732 13.6445 13.4732 14.2675 12.8501C14.8906 12.227 14.8906 11.2242 14.8906 9.21863V7.80044C14.8906 7.30554 14.8906 6.87169 14.8812 6.48954L9.1975 9.64717C8.76918 9.88513 8.24836 9.88513 7.82004 9.64717L2.13632 6.48954ZM2.29924 4.98515C2.35801 4.9999 2.41584 5.02249 2.47132 5.05331L8.50877 8.40745L14.5462 5.05331C14.6017 5.02249 14.6595 4.99991 14.7183 4.98515C14.6261 4.64938 14.4847 4.38611 14.2675 4.16896C13.6445 3.5459 12.6417 3.5459 10.636 3.5459H6.3815C4.37589 3.5459 3.37308 3.5459 2.75002 4.16896C2.53287 4.38611 2.3914 4.64938 2.29924 4.98515Z" fill="#52ACFF"/>
</svg>
