<svg width="31" height="31" viewBox="0 0 31 31" fill="none" xmlns="http://www.w3.org/2000/svg">
<path d="M7.23088 15.3092L16.6662 11.3912C17.5976 10.9831 20.7562 9.67708 20.7562 9.67708C20.7562 9.67708 22.2141 9.10571 22.0926 10.4933C22.0521 11.0647 21.7281 13.0645 21.4042 15.2276L20.3918 21.6351C20.3918 21.6351 20.3108 22.5738 19.6224 22.737C18.934 22.9003 17.8001 22.1657 17.5976 22.0024C17.4356 21.88 14.5605 20.0434 13.5076 19.1455C13.2241 18.9007 12.9002 18.4109 13.5481 17.8396C15.0059 16.4927 16.7472 14.8194 17.8001 13.7583C18.286 13.2686 18.772 12.1258 16.7472 13.5134L11.0374 17.3906C11.0374 17.3906 10.3895 17.7987 9.17464 17.4314C7.95979 17.0641 6.54246 16.5744 6.54246 16.5744C6.54246 16.5744 5.57058 15.9622 7.23088 15.3092Z" fill="white"/>
</svg>
