<svg width="30" height="31" viewBox="0 0 30 31" fill="none" xmlns="http://www.w3.org/2000/svg">
<path d="M20.5768 9.93301C20.1981 9.589 18.5638 8.56212 15.1538 8.54725C15.1538 8.54725 11.1158 8.28194 9.1556 10.0574C8.06463 11.1346 7.69709 12.7364 7.6568 14.6912C7.6165 16.646 7.40772 20.3803 10.9833 21.3736C10.9833 21.3736 10.9692 24.146 10.9676 24.3897C10.9676 24.56 10.9946 24.6766 11.092 24.7007C11.162 24.7177 11.267 24.6815 11.3562 24.5925C11.9279 24.0183 13.7583 21.8101 13.7583 21.8101C16.2142 21.9705 18.1682 21.4856 18.3783 21.4169C18.8738 21.2576 21.5536 21.0275 22.0072 17.364C22.4758 13.5878 21.8349 11.0102 20.5768 9.93301Z" fill="white"/>
<path d="M16.8879 14.5298C16.8435 13.6358 16.3894 13.1662 15.5254 13.1211" stroke="#52ACFF" stroke-width="0.601052" stroke-linecap="round" stroke-linejoin="round"/>
<path d="M18.0578 14.9228C18.0758 14.0899 17.8291 13.3939 17.3176 12.835C16.8037 12.2741 16.0924 11.9652 15.1797 11.8984" stroke="#52ACFF" stroke-width="0.601052" stroke-linecap="round" stroke-linejoin="round"/>
<path d="M19.2548 15.3913C19.2438 13.9458 18.8119 12.8074 17.9591 11.9761C17.1063 11.1447 16.0457 10.7247 14.7773 10.7158" stroke="#52ACFF" stroke-width="0.601052" stroke-linecap="round" stroke-linejoin="round"/>
<path d="M15.57 17.5843C15.57 17.5843 15.8905 17.6113 16.0631 17.3987L16.3995 16.9755C16.5618 16.7656 16.9534 16.6318 17.3369 16.8454C17.6242 17.0093 17.9032 17.1875 18.1728 17.3793C18.4273 17.5664 18.9484 18.0013 18.9501 18.0013C19.1983 18.2109 19.2557 18.5187 19.0866 18.8432C19.0866 18.8451 19.0853 18.8483 19.0853 18.85C18.8991 19.1727 18.6628 19.4637 18.3851 19.7121C18.3819 19.7138 18.3819 19.7154 18.3789 19.717C18.1376 19.9186 17.9006 20.0332 17.6679 20.0607C17.6336 20.0667 17.5988 20.0689 17.564 20.0672C17.4614 20.0682 17.3593 20.0525 17.2617 20.0207L17.2541 20.0096C16.8955 19.9085 16.2967 19.6553 15.2996 19.1053C14.7226 18.7907 14.1732 18.4278 13.6574 18.0205C13.3989 17.8165 13.1523 17.5978 12.9189 17.3655L12.894 17.3406L12.8691 17.3157L12.8442 17.2908C12.8358 17.2827 12.8277 17.2743 12.8193 17.266C12.5871 17.0325 12.3684 16.7859 12.1643 16.5274C11.7571 16.0116 11.3942 15.4624 11.0796 14.8855C10.5295 13.8881 10.2763 13.2899 10.1752 12.9307L10.1641 12.9231C10.1324 12.8255 10.1168 12.7234 10.1179 12.6208C10.116 12.5861 10.1181 12.5512 10.1241 12.5169C10.1531 12.2845 10.2679 12.0474 10.4684 11.8054C10.47 11.8024 10.4716 11.8024 10.4732 11.7992C10.7216 11.5215 11.0126 11.2852 11.3354 11.0993C11.337 11.0993 11.3403 11.0976 11.3422 11.0976C11.6667 10.9286 11.9745 10.986 12.1838 11.2329C12.1854 11.2345 12.6195 11.7556 12.8058 12.0101C12.9976 12.28 13.1758 12.5592 13.3397 12.8469C13.5533 13.2301 13.4195 13.6225 13.2096 13.7842L12.7863 14.1207C12.5727 14.2932 12.6008 14.6137 12.6008 14.6137C12.6008 14.6137 13.2277 16.9863 15.57 17.5843Z" fill="#52ACFF"/>
</svg>
